<svg xmlns="http://www.w3.org/2000/svg" xmlns:xlink="http://www.w3.org/1999/xlink" width="341.334" height="512" viewBox="0 0 341.334 512">
  <defs>
    <linearGradient id="linear-gradient" x1="0.5" x2="0.5" y2="1" gradientUnits="objectBoundingBox">
      <stop offset="0" stop-color="#006ac3"/>
      <stop offset="1" stop-color="#01fe6f"/>
    </linearGradient>
  </defs>
  <g id="location" transform="translate(-85.333)">
    <g id="Group_40" data-name="Group 40">
      <path id="Path_11" data-name="Path 11" d="M256,0C161.9,0,85.333,76.563,85.333,170.667a170.986,170.986,0,0,0,20.49,81.1L246.667,506.5a10.669,10.669,0,0,0,18.666,0l140.9-254.813a170.969,170.969,0,0,0,20.438-81.021C426.667,76.563,350.1,0,256,0Zm0,256a85.333,85.333,0,1,1,85.333-85.333A85.431,85.431,0,0,1,256,256Z" fill="url(#linear-gradient)"/>
    </g>
  </g>
</svg>
